<svg width="28" height="28" viewBox="0 0 28 28" fill="none" xmlns="http://www.w3.org/2000/svg">
<g clip-path="url(#clip0_78_3)">
<path d="M27.2941 13.6471C27.2941 6.11002 21.1841 0 13.647 0C6.10999 0 0 6.11002 0 13.6471V14.3529C0 21.89 6.10999 28 13.647 28C21.1841 28 27.2941 21.89 27.2941 14.3529V13.6471Z" fill="#ED5B5D"/>
<path d="M13.5 13.6472L8.73979 8.89386L8.63373 8.78794L8.52774 8.89393L7.89393 9.52774L7.78794 9.63373L7.89386 9.73979L12.6472 14.5L7.89386 19.2602L7.78794 19.3663L7.89393 19.4723L8.52774 20.1061L8.63373 20.2121L8.73979 20.1061L13.5 15.3528L18.2602 20.1061L18.3663 20.2121L18.4723 20.1061L19.1061 19.4723L19.2121 19.3663L19.1061 19.2602L14.3528 14.5L19.1061 9.73979L19.2121 9.63373L19.1061 9.52774L18.4723 8.89393L18.3663 8.78794L18.2602 8.89386L13.5 13.6472Z" fill="white" stroke="white" stroke-width="0.3"/>
</g>
<defs>
<clipPath id="clip0_78_3">
<rect width="28" height="28" fill="white"/>
</clipPath>
</defs>
</svg>
