<svg width="75" height="31" viewBox="0 0 75 31" fill="none" xmlns="http://www.w3.org/2000/svg">
    <path
        d="M0.0227273 23.5V0.227272H4.94318V19.4432H14.9205V23.5H0.0227273ZM25.9744 23.8409C24.2093 23.8409 22.6828 23.4659 21.3949 22.7159C20.1146 21.9583 19.1259 20.9053 18.429 19.5568C17.732 18.2008 17.3835 16.6288 17.3835 14.8409C17.3835 13.0379 17.732 11.4621 18.429 10.1136C19.1259 8.75758 20.1146 7.70454 21.3949 6.95454C22.6828 6.19697 24.2093 5.81818 25.9744 5.81818C27.7396 5.81818 29.2623 6.19697 30.5426 6.95454C31.8305 7.70454 32.8229 8.75758 33.5199 10.1136C34.2169 11.4621 34.5653 13.0379 34.5653 14.8409C34.5653 16.6288 34.2169 18.2008 33.5199 19.5568C32.8229 20.9053 31.8305 21.9583 30.5426 22.7159C29.2623 23.4659 27.7396 23.8409 25.9744 23.8409ZM25.9972 20.0909C26.8002 20.0909 27.4706 19.8636 28.0085 19.4091C28.5464 18.947 28.9517 18.3182 29.2244 17.5227C29.5047 16.7273 29.6449 15.822 29.6449 14.8068C29.6449 13.7917 29.5047 12.8864 29.2244 12.0909C28.9517 11.2955 28.5464 10.6667 28.0085 10.2045C27.4706 9.74242 26.8002 9.51136 25.9972 9.51136C25.1866 9.51136 24.5047 9.74242 23.9517 10.2045C23.4063 10.6667 22.9934 11.2955 22.7131 12.0909C22.4403 12.8864 22.304 13.7917 22.304 14.8068C22.304 15.822 22.4403 16.7273 22.7131 17.5227C22.9934 18.3182 23.4063 18.947 23.9517 19.4091C24.5047 19.8636 25.1866 20.0909 25.9972 20.0909ZM45.5767 30.4091C44.0085 30.4091 42.6638 30.1932 41.5426 29.7614C40.429 29.3371 39.5426 28.7576 38.8835 28.0227C38.2244 27.2879 37.7964 26.4621 37.5994 25.5455L42.0767 24.9432C42.2131 25.2917 42.429 25.6174 42.7244 25.9205C43.0199 26.2235 43.41 26.4659 43.8949 26.6477C44.3873 26.8371 44.9858 26.9318 45.6903 26.9318C46.7434 26.9318 47.6108 26.6742 48.2926 26.1591C48.982 25.6515 49.3267 24.7992 49.3267 23.6023V20.4091H49.1222C48.91 20.8939 48.5919 21.3523 48.1676 21.7841C47.7434 22.2159 47.1979 22.5682 46.5312 22.8409C45.8646 23.1136 45.0691 23.25 44.1449 23.25C42.8343 23.25 41.6411 22.947 40.5653 22.3409C39.4972 21.7273 38.6449 20.7917 38.0085 19.5341C37.3797 18.2689 37.0653 16.6705 37.0653 14.7386C37.0653 12.7614 37.3873 11.1098 38.0312 9.78409C38.6752 8.45833 39.5313 7.46591 40.5994 6.80682C41.6752 6.14773 42.8532 5.81818 44.1335 5.81818C45.1108 5.81818 45.929 5.98485 46.5881 6.31818C47.2472 6.64394 47.7775 7.05303 48.179 7.54545C48.5881 8.0303 48.9025 8.50758 49.1222 8.97727H49.304V6.04545H54.1108V23.6705C54.1108 25.1553 53.7472 26.3977 53.0199 27.3977C52.2926 28.3977 51.285 29.1477 49.9972 29.6477C48.7169 30.1553 47.2434 30.4091 45.5767 30.4091ZM45.679 19.6136C46.4593 19.6136 47.1184 19.4205 47.6562 19.0341C48.2017 18.6402 48.6184 18.0795 48.9062 17.3523C49.2017 16.6174 49.3494 15.7386 49.3494 14.7159C49.3494 13.6932 49.2055 12.8068 48.9176 12.0568C48.6297 11.2992 48.2131 10.7121 47.6676 10.2955C47.1222 9.87879 46.4593 9.67045 45.679 9.67045C44.8835 9.67045 44.2131 9.88636 43.6676 10.3182C43.1222 10.7424 42.7093 11.3333 42.429 12.0909C42.1487 12.8485 42.0085 13.7235 42.0085 14.7159C42.0085 15.7235 42.1487 16.5947 42.429 17.3295C42.7169 18.0568 43.1297 18.6212 43.6676 19.0227C44.2131 19.4167 44.8835 19.6136 45.679 19.6136ZM65.8494 23.8409C64.0843 23.8409 62.5578 23.4659 61.2699 22.7159C59.9896 21.9583 59.0009 20.9053 58.304 19.5568C57.607 18.2008 57.2585 16.6288 57.2585 14.8409C57.2585 13.0379 57.607 11.4621 58.304 10.1136C59.0009 8.75758 59.9896 7.70454 61.2699 6.95454C62.5578 6.19697 64.0843 5.81818 65.8494 5.81818C67.6146 5.81818 69.1373 6.19697 70.4176 6.95454C71.7055 7.70454 72.6979 8.75758 73.3949 10.1136C74.0919 11.4621 74.4403 13.0379 74.4403 14.8409C74.4403 16.6288 74.0919 18.2008 73.3949 19.5568C72.6979 20.9053 71.7055 21.9583 70.4176 22.7159C69.1373 23.4659 67.6146 23.8409 65.8494 23.8409ZM65.8722 20.0909C66.6752 20.0909 67.3456 19.8636 67.8835 19.4091C68.4214 18.947 68.8267 18.3182 69.0994 17.5227C69.3797 16.7273 69.5199 15.822 69.5199 14.8068C69.5199 13.7917 69.3797 12.8864 69.0994 12.0909C68.8267 11.2955 68.4214 10.6667 67.8835 10.2045C67.3456 9.74242 66.6752 9.51136 65.8722 9.51136C65.0616 9.51136 64.3797 9.74242 63.8267 10.2045C63.2813 10.6667 62.8684 11.2955 62.5881 12.0909C62.3153 12.8864 62.179 13.7917 62.179 14.8068C62.179 15.822 62.3153 16.7273 62.5881 17.5227C62.8684 18.3182 63.2813 18.947 63.8267 19.4091C64.3797 19.8636 65.0616 20.0909 65.8722 20.0909Z"
        fill="black" />
</svg>